<svg width="36" height="36" viewBox="0 0 36 36" fill="none" xmlns="http://www.w3.org/2000/svg">
<rect width="36" height="36" rx="18" fill="white"/>
<path d="M22.8654 10H16.0276C15.4387 10 15.0695 10.334 15.0783 10.8701C15.0871 11.415 15.4387 11.749 16.0276 11.749H22.7512C23.5686 11.749 24.008 12.1709 24.008 13.0234V22.1553L22.7688 20.8018L22.0656 20.1074C21.6965 19.7471 21.1779 19.7119 20.8176 20.0898C20.4485 20.4502 20.4572 20.9775 20.8264 21.3467L23.8322 24.3438C24.5002 25.0029 25.2649 25.0029 25.9328 24.3438L28.9299 21.3467C29.3078 20.9775 29.3166 20.4502 28.9475 20.0898C28.5783 19.7207 28.0686 19.7383 27.6906 20.1074L26.9875 20.8018L25.7658 22.1465V12.8652C25.7658 10.9756 24.7639 10 22.8654 10ZM7.26486 16.3369C7.634 16.7061 8.15256 16.6885 8.5217 16.3193L9.22482 15.625L10.4553 14.2803V23.5615C10.4553 25.4424 11.4485 26.4268 13.3469 26.4268H20.1936C20.7736 26.4268 21.1428 26.0928 21.134 25.5479C21.134 25.0117 20.7736 24.6777 20.1936 24.6777H13.4611C12.6526 24.6777 12.2043 24.2559 12.2043 23.4033V14.2715L13.4436 15.625L14.1467 16.3193C14.5246 16.6797 15.0344 16.7061 15.4035 16.3369C15.7639 15.9678 15.7639 15.4492 15.386 15.0801L12.3801 12.083C11.7121 11.4238 10.9563 11.4238 10.2883 12.083L7.28244 15.0801C6.9133 15.4492 6.90451 15.9678 7.26486 16.3369Z" fill="#3772E7"/>
</svg>
